<?xml version="1.0" standalone="no"?>
<!DOCTYPE svg PUBLIC "-//W3C//DTD SVG 20010904//EN"
 "http://www.w3.org/TR/2001/REC-SVG-20010904/DTD/svg10.dtd">
<svg version="1.0" xmlns="http://www.w3.org/2000/svg"
 width="500.000000pt" height="500.000000pt" viewBox="0 0 500.000000 500.000000"
 preserveAspectRatio="xMidYMid meet">

<g transform="translate(0.000000,500.000000) scale(0.100000,-0.100000)"
fill="#000000" stroke="none">
<path d="M0 2500 l0 -2500 2500 0 2500 0 0 2500 0 2500 -2500 0 -2500 0 0
-2500z m2742 1715 c369 -56 684 -211 955 -469 276 -263 453 -604 515 -991 16
-106 16 -419 -1 -515 -47 -269 -131 -484 -270 -692 -272 -408 -676 -670 -1161
-755 -119 -21 -431 -24 -540 -4 -107 18 -257 57 -342 87 -107 38 -290 135
-398 212 -123 86 -336 299 -422 422 -130 185 -232 426 -280 661 -20 99 -23
143 -23 334 0 171 4 239 18 307 41 202 116 404 206 555 55 92 54 93 -36 93
-39 0 -53 4 -51 12 6 16 83 30 128 23 34 -6 37 -3 87 63 122 161 312 328 495
437 173 103 409 186 623 219 125 19 372 19 497 1z"/>
<path d="M2345 4124 c-355 -40 -677 -181 -934 -410 -59 -53 -221 -232 -221
-244 0 -3 25 -18 56 -34 68 -36 167 -133 212 -208 18 -30 139 -284 268 -564
129 -280 238 -512 243 -517 4 -4 126 258 271 583 144 324 267 590 271 590 10
0 1 54 114 -667 98 -627 114 -701 178 -813 81 -144 250 -250 397 -250 43 0 37
-16 -7 -24 -87 -14 -220 8 -313 52 -72 33 -176 138 -225 225 -66 119 -80 185
-145 664 -34 246 -64 456 -68 467 -6 13 -66 -113 -224 -470 -119 -269 -224
-514 -233 -544 -9 -30 -19 -61 -21 -67 -2 -7 -7 -13 -11 -13 -4 0 -107 215
-227 478 -261 566 -288 624 -291 620 -1 -2 -22 -227 -46 -500 l-43 -497 24
-26 c14 -15 34 -25 52 -25 15 0 28 -4 28 -10 0 -6 -70 -10 -190 -10 -120 0
-190 4 -190 10 0 6 15 10 33 10 17 0 47 8 66 18 72 36 68 20 138 619 63 542
63 548 46 588 -25 56 -125 187 -169 220 l-37 28 -24 -29 c-38 -48 -130 -242
-168 -357 -110 -331 -112 -693 -4 -1022 41 -126 146 -332 226 -445 86 -120
252 -285 374 -372 577 -411 1351 -404 1919 17 94 70 250 226 323 322 325 427
418 981 251 1492 -180 552 -647 968 -1217 1086 -120 25 -377 40 -482 29z
m1273 -820 l82 -7 0 -124 c0 -121 -11 -154 -24 -73 -14 88 -115 156 -231 154
-73 -1 -130 -27 -174 -81 -69 -83 -68 -216 2 -291 12 -13 105 -90 207 -170
218 -171 280 -228 327 -300 115 -176 102 -392 -32 -540 -90 -100 -199 -143
-360 -144 -158 0 -270 44 -358 142 -117 129 -128 343 -28 498 21 31 45 63 53
70 29 23 28 -3 -2 -48 -49 -74 -73 -167 -68 -263 7 -136 72 -233 196 -294 52
-26 67 -28 167 -28 100 0 116 3 173 29 156 72 233 241 184 403 -36 118 -64
149 -322 354 -129 103 -244 203 -256 221 -36 57 -47 105 -42 187 12 201 161
331 363 316 33 -3 97 -8 143 -11z"/>
</g>
</svg>
